<svg xmlns="http://www.w3.org/2000/svg" width="1000" height="300" xml:space="preserve"><rect width="100%" height="100%" fill="transparent"/><g><path style="stroke:none;stroke-width:1;stroke-dasharray:none;stroke-linecap:butt;stroke-dashoffset:0;stroke-linejoin:miter;stroke-miterlimit:4;fill:#fff;fill-rule:nonzero;opacity:1" vector-effect="non-scaling-stroke" transform="matrix(2.66 0 0 2.66 248.276 95.337)" d="M26.36 0H3.5v-30.969h22.563v3.703H7.688v9.485H24.64v3.703H7.688v10.375h18.671Zm0 0"/><path style="stroke:none;stroke-width:1;stroke-dasharray:none;stroke-linecap:butt;stroke-dashoffset:0;stroke-linejoin:miter;stroke-miterlimit:4;fill:#fff;fill-rule:nonzero;opacity:1" vector-effect="non-scaling-stroke" transform="matrix(2.66 0 0 2.66 323.082 95.337)" d="M24-30.969h4.047V0H23.39L7.594-25.031H7.5V0h-4v-30.969h4.906l15.516 25H24Zm0 0"/><path style="stroke:none;stroke-width:1;stroke-dasharray:none;stroke-linecap:butt;stroke-dashoffset:0;stroke-linejoin:miter;stroke-miterlimit:4;fill:#fff;fill-rule:nonzero;opacity:1" vector-effect="non-scaling-stroke" transform="matrix(2.66 0 0 2.66 407.192 95.337)" d="M7.688-3.578h8.109c2.812 0 5.008-1.078 6.594-3.235 1.593-2.156 2.39-5.101 2.39-8.843 0-3.696-.804-6.57-2.406-8.625-1.594-2.051-3.902-3.086-6.922-3.11H7.688ZM3.5-30.968h12.563c4.05 0 7.222 1.398 9.515 4.187 2.3 2.781 3.453 6.398 3.453 10.843 0 4.782-1.152 8.637-3.453 11.563C23.285-1.457 20.055 0 15.891 0H3.5Zm0 0"/><path style="stroke:none;stroke-width:1;stroke-dasharray:none;stroke-linecap:butt;stroke-dashoffset:0;stroke-linejoin:miter;stroke-miterlimit:4;fill:#fff;fill-rule:nonzero;opacity:1" vector-effect="non-scaling-stroke" transform="matrix(2.66 0 0 2.66 518.157 95.337)" d="M10.953-27.266H.531v-3.703h25.157v3.703H15.155V0h-4.203Zm0 0"/><path style="stroke:none;stroke-width:1;stroke-dasharray:none;stroke-linecap:butt;stroke-dashoffset:0;stroke-linejoin:miter;stroke-miterlimit:4;fill:#fff;fill-rule:nonzero;opacity:1" vector-effect="non-scaling-stroke" transform="matrix(2.66 0 0 2.66 588.075 95.337)" d="M28 0h-4.188v-14.453H7.625V0H3.5v-30.969h4.125v12.797h16.188v-12.797H28Zm0 0"/><path style="stroke:none;stroke-width:1;stroke-dasharray:none;stroke-linecap:butt;stroke-dashoffset:0;stroke-linejoin:miter;stroke-miterlimit:4;fill:#fff;fill-rule:nonzero;opacity:1" vector-effect="non-scaling-stroke" transform="matrix(2.66 0 0 2.66 672.076 95.337)" d="M26.36 0H3.5v-30.969h22.563v3.703H7.688v9.485H24.64v3.703H7.688v10.375h18.671Zm0 0"/><path style="stroke:none;stroke-width:1;stroke-dasharray:none;stroke-linecap:butt;stroke-dashoffset:0;stroke-linejoin:miter;stroke-miterlimit:4;fill:#fff;fill-rule:nonzero;opacity:1" vector-effect="non-scaling-stroke" transform="matrix(2.66 0 0 2.66 -2.203 288.653)" d="M16.016-19.094c0 3.063 1.129 5.5 3.39 7.313 2.27 1.812 5.508 2.719 9.719 2.719 4.219 0 7.43-.68 9.64-2.047 2.208-1.364 3.313-3.364 3.313-6 0-1.582-.574-2.946-1.719-4.094-1.136-1.156-3.84-2.238-8.109-3.25l-10.531-2.438c-6.668-1.582-11.203-3.726-13.61-6.437-2.398-2.707-3.593-6.453-3.593-11.234 0-5.594 1.984-10.165 5.953-13.72 3.976-3.562 9.945-5.343 17.906-5.343 7.895 0 13.883 2 17.969 6 4.093 3.992 6.156 8.668 6.187 14.031H40.094c-.282-3.031-1.465-5.336-3.547-6.922-2.074-1.593-5.121-2.39-9.14-2.39-3.231 0-5.84.668-7.829 2-1.98 1.336-2.969 3.14-2.969 5.422 0 1.574.43 2.882 1.297 3.922.875 1.03 2.285 1.789 4.235 2.265l16.562 4.094c5.988 1.46 10.117 3.558 12.39 6.297 2.282 2.742 3.423 6.164 3.423 10.265 0 6.75-2.344 11.82-7.032 15.203C42.804-.05 37.016 1.641 30.11 1.641c-8.937 0-15.593-1.899-19.968-5.704-4.375-3.812-6.563-8.82-6.563-15.03Zm0 0"/><path style="stroke:none;stroke-width:1;stroke-dasharray:none;stroke-linecap:butt;stroke-dashoffset:0;stroke-linejoin:miter;stroke-miterlimit:4;fill:#fff;fill-rule:nonzero;opacity:1" vector-effect="non-scaling-stroke" transform="matrix(2.66 0 0 2.66 152.042 288.647)" d="M19.266 0H6.328v-61.969h12.938Zm0 0"/><path style="stroke:none;stroke-width:1;stroke-dasharray:none;stroke-linecap:butt;stroke-dashoffset:0;stroke-linejoin:miter;stroke-miterlimit:4;fill:#fff;fill-rule:nonzero;opacity:1" vector-effect="non-scaling-stroke" transform="matrix(2.66 0 0 2.66 220.391 288.647)" d="M19.266-11.219h30.828V0H6.328v-61.969h12.938Zm0 0"/><path style="stroke:none;stroke-width:1;stroke-dasharray:none;stroke-linecap:butt;stroke-dashoffset:0;stroke-linejoin:miter;stroke-miterlimit:4;fill:#fff;fill-rule:nonzero;opacity:1" vector-effect="non-scaling-stroke" transform="matrix(2.66 0 0 2.66 357.889 288.647)" d="M51.906-51.016h-32.89v13.032H49.25v10.953H19.016v16.062h34.359V0H6.328v-61.969h45.578Zm0 0"/><path style="stroke:none;stroke-width:1;stroke-dasharray:none;stroke-linecap:butt;stroke-dashoffset:0;stroke-linejoin:miter;stroke-miterlimit:4;fill:#fff;fill-rule:nonzero;opacity:1" vector-effect="non-scaling-stroke" transform="matrix(2.66 0 0 2.66 510.327 288.647)" d="M44.781-61.969h12.047V0H43.891L18.594-44.219h-.172V0H6.328v-61.969h13.656L44.61-18.797h.172Zm0 0"/><path style="stroke:none;stroke-width:1;stroke-dasharray:none;stroke-linecap:butt;stroke-dashoffset:0;stroke-linejoin:miter;stroke-miterlimit:4;fill:#fff;fill-rule:nonzero;opacity:1" vector-effect="non-scaling-stroke" transform="matrix(2.66 0 0 2.66 678.746 288.653)" d="M46.125-41.703c-1.605-7.133-6.188-10.703-13.75-10.703-4.688 0-8.43 1.914-11.219 5.734-2.781 3.824-4.172 9.137-4.172 15.938 0 6.375 1.348 11.496 4.047 15.359 2.696 3.867 6.477 5.797 11.344 5.797 7.426 0 12.008-3.89 13.75-11.672h12.938c-.93 6.355-3.711 11.762-8.344 16.219C46.082-.582 39.883 1.64 32.125 1.64c-8.656 0-15.543-2.86-20.656-8.579-5.117-5.718-7.672-13.707-7.672-23.968 0-9.801 2.539-17.703 7.625-23.703 5.094-6.008 12.05-9.016 20.875-9.016 7.726 0 13.973 2.09 18.734 6.266 4.77 4.18 7.446 9.398 8.032 15.656Zm0 0"/><path style="stroke:none;stroke-width:1;stroke-dasharray:none;stroke-linecap:butt;stroke-dashoffset:0;stroke-linejoin:miter;stroke-miterlimit:4;fill:#fff;fill-rule:nonzero;opacity:1" vector-effect="non-scaling-stroke" transform="matrix(2.66 0 0 2.66 845.229 288.647)" d="M51.906-51.016h-32.89v13.032H49.25v10.953H19.016v16.062h34.359V0H6.328v-61.969h45.578Zm0 0"/></g></svg>
